<svg width="41" height="40" viewBox="0 0 41 40" fill="none" xmlns="http://www.w3.org/2000/svg">
    <path d="M29 19.9935C28.9934 19.2915 28.7057 18.6204 28.1993 18.1255L22.3771 12.388C22.1229 12.1395 21.7789 12 21.4204 12C21.0618 12 20.7178 12.1395 20.4636 12.388C20.3364 12.512 20.2354 12.6596 20.1665 12.8222C20.0976 12.9848 20.0621 13.1592 20.0621 13.3354C20.0621 13.5115 20.0976 13.6859 20.1665 13.8485C20.2354 14.0111 20.3364 14.1587 20.4636 14.2827L24.9286 18.6592H11.3571C10.9972 18.6592 10.652 18.7998 10.3975 19.05C10.143 19.3002 10 19.6396 10 19.9935C10 20.3474 10.143 20.6867 10.3975 20.937C10.652 21.1872 10.9972 21.3278 11.3571 21.3278H24.9286L20.4636 25.7176C20.208 25.9671 20.0637 26.3062 20.0625 26.6602C20.0612 27.0143 20.203 27.3544 20.4568 27.6056C20.7105 27.8569 21.0554 27.9987 21.4156 28C21.7757 28.0012 22.1216 27.8618 22.3771 27.6123L28.1993 21.8748C28.709 21.3767 28.997 20.7001 29 19.9935V19.9935Z" fill="#4AC18E"/>
</svg>
