<svg style="fill: currentColor;" width="1em" height="1em" viewBox="0 0 22 22" fill="none" xmlns="http://www.w3.org/2000/svg">
    <path fill-rule="evenodd" clip-rule="evenodd" d="M20 11C20 15.9706 15.9706 20 11 20C6.02944 20 2 15.9706 2 11C2 6.02944 6.02944 2 11 2C12.814 2 14.4971 2.5346 15.9077 3.45427C15.9178 3.46091 15.928 3.46756 15.9381 3.47424L17.2252 1.92975C17.1508 1.87858 17.0757 1.8283 17 1.77893C15.2744 0.653842 13.2136 0 11 0C4.92487 0 0 4.92487 0 11C0 17.0751 4.92487 22 11 22C17.0751 22 22 17.0751 22 11C22 9.85448 21.8249 8.74985 21.5 7.71143C21.4833 7.65791 21.4661 7.60458 21.4486 7.55142L19.8169 9.18308C19.9368 9.76867 20 10.3761 20 11Z" />
    <path d="M19.7617 3.32228L10.0372 13.6858C9.9718 13.7557 9.8941 13.8112 9.80854 13.8491C9.72298 13.887 9.63125 13.9065 9.5386 13.9065C9.44596 13.9065 9.35422 13.887 9.26867 13.8491C9.18311 13.8112 9.10541 13.7557 9.04003 13.6858L5.27944 9.67403C5.21406 9.60407 5.13636 9.54856 5.0508 9.51069C4.96524 9.47281 4.87351 9.45331 4.78086 9.45331C4.68822 9.45331 4.59648 9.47281 4.51093 9.51069C4.42537 9.54856 4.34767 9.60407 4.28229 9.67403C4.21665 9.74371 4.16457 9.82652 4.12903 9.91771C4.09349 10.0089 4.0752 10.1067 4.0752 10.2054C4.0752 10.3041 4.09349 10.4019 4.12903 10.4931C4.16457 10.5843 4.21665 10.6671 4.28229 10.7368L8.04429 14.7455C8.44114 15.1677 8.97894 15.4048 9.53966 15.4048C10.1004 15.4048 10.6382 15.1677 11.035 14.7455L20.7588 4.38428C20.8243 4.31461 20.8763 4.23185 20.9118 4.14073C20.9473 4.04961 20.9655 3.95193 20.9655 3.85328C20.9655 3.75463 20.9473 3.65695 20.9118 3.56583C20.8763 3.47471 20.8243 3.39195 20.7588 3.32228C20.6934 3.25232 20.6157 3.19681 20.5302 3.15894C20.4446 3.12106 20.3529 3.10156 20.2602 3.10156C20.1676 3.10156 20.0759 3.12106 19.9903 3.15894C19.9047 3.19681 19.827 3.25232 19.7617 3.32228Z"/>
</svg>
