<svg style="fill: currentColor;" width="1em" height="1em" viewBox="0 0 16 16" fill="none"
     xmlns="http://www.w3.org/2000/svg">
    <path d="M8.66677 13.3334C9.5505 13.3323 10.3977 12.9808 11.0226 12.3559C11.6475 11.731 11.999 10.8838 12.0001 10.0001V4.16207C12.0011 3.81164 11.9326 3.46449 11.7985 3.14075C11.6644 2.817 11.4673 2.5231 11.2188 2.27607L9.7241 0.781402C9.47707 0.532851 9.18317 0.335804 8.85942 0.201682C8.53568 0.0675605 8.18853 -0.000968081 7.8381 6.88135e-05H4.66677C3.78304 0.00112739 2.93581 0.352657 2.31091 0.977549C1.68602 1.60244 1.33449 2.44967 1.33344 3.3334V10.0001C1.33449 10.8838 1.68602 11.731 2.31091 12.3559C2.93581 12.9808 3.78304 13.3323 4.66677 13.3334H8.66677ZM2.66677 10.0001V3.3334C2.66677 2.80297 2.87748 2.29426 3.25255 1.91919C3.62763 1.54412 4.13634 1.3334 4.66677 1.3334C4.66677 1.3334 7.9461 1.34274 8.0001 1.3494V2.66674C8.0001 3.02036 8.14058 3.3595 8.39063 3.60954C8.64068 3.85959 8.97981 4.00007 9.33344 4.00007H10.6508C10.6574 4.05407 10.6668 10.0001 10.6668 10.0001C10.6668 10.5305 10.4561 11.0392 10.081 11.4143C9.70591 11.7894 9.1972 12.0001 8.66677 12.0001H4.66677C4.13634 12.0001 3.62763 11.7894 3.25255 11.4143C2.87748 11.0392 2.66677 10.5305 2.66677 10.0001ZM14.6668 5.3334V12.6667C14.6657 13.5505 14.3142 14.3977 13.6893 15.0226C13.0644 15.6475 12.2172 15.999 11.3334 16.0001H5.33344C5.15662 16.0001 4.98706 15.9298 4.86203 15.8048C4.73701 15.6798 4.66677 15.5102 4.66677 15.3334C4.66677 15.1566 4.73701 14.987 4.86203 14.862C4.98706 14.737 5.15662 14.6667 5.33344 14.6667H11.3334C11.8639 14.6667 12.3726 14.456 12.7476 14.0809C13.1227 13.7059 13.3334 13.1972 13.3334 12.6667V5.3334C13.3334 5.15659 13.4037 4.98702 13.5287 4.862C13.6537 4.73697 13.8233 4.66674 14.0001 4.66674C14.1769 4.66674 14.3465 4.73697 14.4715 4.862C14.5965 4.98702 14.6668 5.15659 14.6668 5.3334Z"/>
</svg>
