<svg style="fill: currentColor;" width="1em" height="1em" viewBox="0 0 16 16" fill="none" xmlns="http://www.w3.org/2000/svg">
    <path d="M13.9999 2.66666H11.9333C11.7786 1.91427 11.3692 1.23823 10.7741 0.752475C10.1791 0.266723 9.43475 0.000965868 8.66662 -3.8147e-06L7.33328 -3.8147e-06C6.56515 0.000965868 5.82083 0.266723 5.22578 0.752475C4.63074 1.23823 4.22135 1.91427 4.06662 2.66666H1.99995C1.82314 2.66666 1.65357 2.7369 1.52854 2.86193C1.40352 2.98695 1.33328 3.15652 1.33328 3.33333C1.33328 3.51014 1.40352 3.67971 1.52854 3.80473C1.65357 3.92976 1.82314 4 1.99995 4H2.66662V12.6667C2.66767 13.5504 3.0192 14.3976 3.6441 15.0225C4.26899 15.6474 5.11622 15.9989 5.99995 16H9.99995C10.8837 15.9989 11.7309 15.6474 12.3558 15.0225C12.9807 14.3976 13.3322 13.5504 13.3333 12.6667V4H13.9999C14.1768 4 14.3463 3.92976 14.4714 3.80473C14.5964 3.67971 14.6666 3.51014 14.6666 3.33333C14.6666 3.15652 14.5964 2.98695 14.4714 2.86193C14.3463 2.7369 14.1768 2.66666 13.9999 2.66666ZM7.33328 1.33333H8.66662C9.08013 1.33383 9.48337 1.46225 9.82102 1.70096C10.1587 1.93967 10.4142 2.27699 10.5526 2.66666H5.44728C5.58567 2.27699 5.84122 1.93967 6.17887 1.70096C6.51653 1.46225 6.91977 1.33383 7.33328 1.33333ZM11.9999 12.6667C11.9999 13.1971 11.7892 13.7058 11.4142 14.0809C11.0391 14.4559 10.5304 14.6667 9.99995 14.6667H5.99995C5.46952 14.6667 4.96081 14.4559 4.58574 14.0809C4.21066 13.7058 3.99995 13.1971 3.99995 12.6667V4H11.9999V12.6667Z"/>
    <path d="M6.66667 11.9996C6.84348 11.9996 7.01304 11.9293 7.13807 11.8043C7.26309 11.6793 7.33333 11.5097 7.33333 11.3329V7.33291C7.33333 7.1561 7.26309 6.98653 7.13807 6.86151C7.01304 6.73649 6.84348 6.66625 6.66667 6.66625C6.48985 6.66625 6.32029 6.73649 6.19526 6.86151C6.07024 6.98653 6 7.1561 6 7.33291V11.3329C6 11.5097 6.07024 11.6793 6.19526 11.8043C6.32029 11.9293 6.48985 11.9996 6.66667 11.9996Z"/>
    <path d="M9.33324 11.9996C9.51005 11.9996 9.67962 11.9293 9.80464 11.8043C9.92967 11.6793 9.99991 11.5097 9.99991 11.3329V7.33291C9.99991 7.1561 9.92967 6.98653 9.80464 6.86151C9.67962 6.73649 9.51005 6.66625 9.33324 6.66625C9.15642 6.66625 8.98685 6.73649 8.86183 6.86151C8.7368 6.98653 8.66656 7.1561 8.66656 7.33291V11.3329C8.66656 11.5097 8.7368 11.6793 8.86183 11.8043C8.98685 11.9293 9.15642 11.9996 9.33324 11.9996Z"/>
</svg>
