<svg style="fill: currentColor;" width="1em" height="1em" viewBox="0 0 16 16" fill="none" xmlns="http://www.w3.org/2000/svg">
    <path d="M14.276 2.09199H12.9405C12.791 1.63576 12.5012 1.23842 12.1125 0.956712C11.7237 0.675 11.2559 0.523315 10.7758 0.523315C10.2957 0.523315 9.82785 0.675 9.43909 0.956712C9.05033 1.23842 8.76052 1.63576 8.61102 2.09199H1.72402C1.53174 2.09199 1.34733 2.16837 1.21137 2.30434C1.07541 2.4403 0.999023 2.62471 0.999023 2.81699C0.999023 3.00927 1.07541 3.19368 1.21137 3.32964C1.34733 3.46561 1.53174 3.54199 1.72402 3.54199H8.61102C8.76052 3.99822 9.05033 4.39556 9.43909 4.67727C9.82785 4.95898 10.2957 5.11067 10.7758 5.11067C11.2559 5.11067 11.7237 4.95898 12.1125 4.67727C12.5012 4.39556 12.791 3.99822 12.9405 3.54199H14.276C14.4683 3.54199 14.6527 3.46561 14.7887 3.32964C14.9246 3.19368 15.001 3.00927 15.001 2.81699C15.001 2.62471 14.9246 2.4403 14.7887 2.30434C14.6527 2.16837 14.4683 2.09199 14.276 2.09199ZM10.776 3.66099C10.6089 3.66109 10.4455 3.61162 10.3064 3.51883C10.1674 3.42604 10.059 3.2941 9.99499 3.13971C9.93096 2.98531 9.91415 2.81539 9.9467 2.65145C9.97925 2.4875 10.0597 2.33689 10.1778 2.21866C10.296 2.10044 10.4466 2.01991 10.6105 1.98726C10.7744 1.95462 10.9443 1.97132 11.0988 2.03526C11.2532 2.09921 11.3852 2.20751 11.4781 2.34648C11.571 2.48545 11.6205 2.64884 11.6205 2.81599C11.6203 3.03993 11.5312 3.25463 11.3729 3.41303C11.2146 3.57142 11 3.66059 10.776 3.66099Z"/>
    <path d="M14.276 7.27595H7.38902C7.23953 6.81972 6.94972 6.42238 6.56096 6.14067C6.1722 5.85896 5.70437 5.70728 5.22427 5.70728C4.74417 5.70728 4.27635 5.85896 3.88759 6.14067C3.49883 6.42238 3.20902 6.81972 3.05952 7.27595H1.72402C1.53174 7.27595 1.34733 7.35233 1.21137 7.4883C1.07541 7.62426 0.999023 7.80867 0.999023 8.00095C0.999023 8.19323 1.07541 8.37764 1.21137 8.5136C1.34733 8.64957 1.53174 8.72595 1.72402 8.72595H3.05952C3.20902 9.18218 3.49883 9.57952 3.88759 9.86123C4.27635 10.1429 4.74417 10.2946 5.22427 10.2946C5.70437 10.2946 6.1722 10.1429 6.56096 9.86123C6.94972 9.57952 7.23953 9.18218 7.38902 8.72595H14.276C14.4683 8.72595 14.6527 8.64957 14.7887 8.5136C14.9246 8.37764 15.001 8.19323 15.001 8.00095C15.001 7.80867 14.9246 7.62426 14.7887 7.4883C14.6527 7.35233 14.4683 7.27595 14.276 7.27595ZM5.22602 8.84495C5.05881 8.84535 4.89525 8.79612 4.75602 8.70352C4.6168 8.61091 4.50818 8.47907 4.44392 8.32471C4.37966 8.17034 4.36264 8.00037 4.39502 7.83633C4.42739 7.67228 4.50772 7.52153 4.62581 7.40316C4.74391 7.28478 4.89447 7.2041 5.05843 7.17134C5.2224 7.13857 5.39241 7.15519 5.54693 7.21908C5.70145 7.28298 5.83354 7.39128 5.92648 7.53029C6.01941 7.66929 6.06902 7.83274 6.06902 7.99995C6.06876 8.22398 5.97965 8.43875 5.82124 8.59716C5.66283 8.75557 5.44805 8.84469 5.22402 8.84495H5.22602Z"/>
    <path d="M14.276 12.4592H12.9405C12.791 12.0029 12.5012 11.6056 12.1125 11.3239C11.7237 11.0422 11.2559 10.8905 10.7758 10.8905C10.2957 10.8905 9.82785 11.0422 9.43909 11.3239C9.05033 11.6056 8.76052 12.0029 8.61102 12.4592H1.72402C1.53174 12.4592 1.34733 12.5356 1.21137 12.6715C1.07541 12.8075 0.999023 12.9919 0.999023 13.1842C0.999023 13.3765 1.07541 13.5609 1.21137 13.6968C1.34733 13.8328 1.53174 13.9092 1.72402 13.9092H8.61102C8.76052 14.3654 9.05033 14.7627 9.43909 15.0445C9.82785 15.3262 10.2957 15.4779 10.7758 15.4779C11.2559 15.4779 11.7237 15.3262 12.1125 15.0445C12.5012 14.7627 12.791 14.3654 12.9405 13.9092H14.276C14.4683 13.9092 14.6527 13.8328 14.7887 13.6968C14.9246 13.5609 15.001 13.3765 15.001 13.1842C15.001 12.9919 14.9246 12.8075 14.7887 12.6715C14.6527 12.5356 14.4683 12.4592 14.276 12.4592ZM10.776 14.0282C10.6089 14.0283 10.4454 13.9788 10.3064 13.886C10.1673 13.7932 10.059 13.6612 9.99494 13.5068C9.93092 13.3524 9.91415 13.1824 9.94674 13.0184C9.97933 12.8545 10.0598 12.7039 10.178 12.5857C10.2962 12.4675 10.4468 12.387 10.6108 12.3544C10.7748 12.3218 10.9447 12.3386 11.0991 12.4026C11.2535 12.4666 11.3855 12.575 11.4783 12.714C11.5711 12.8531 11.6206 13.0165 11.6205 13.1837C11.6201 13.4075 11.531 13.6221 11.3727 13.7804C11.2144 13.9387 10.9999 14.0278 10.776 14.0282Z"/>
</svg>
