<svg width="1em" height="1em" viewBox="0 0 22 22" fill="none" xmlns="http://www.w3.org/2000/svg">
    <circle style="stroke: currentColor;" cx="11" cy="11" r="10" stroke-width="2"/>
    <path style="fill: currentColor;" d="M10.288 13.56L9.952 7.24V5.32H11.648V7.24L11.312 13.56H10.288ZM10.56 17.08C10.2827 17.08 10.0533 16.9893 9.872 16.808C9.69067 16.6267 9.6 16.3973 9.6 16.12C9.6 15.8427 9.69067 15.6133 9.872 15.432C10.0533 15.2507 10.2827 15.16 10.56 15.16H11.04C11.3493 15.16 11.584 15.2507 11.744 15.432C11.9147 15.6027 12 15.8267 12 16.104C12 16.3813 11.9093 16.616 11.728 16.808C11.5467 16.9893 11.3173 17.08 11.04 17.08H10.56Z"/>
</svg>
