<svg width="298" height="32" viewBox="0 0 298 32" fill="none" xmlns="http://www.w3.org/2000/svg">
    <path fill-rule="evenodd" clip-rule="evenodd" d="M58.8043 0.000130948V19.9731C55.0739 16.2813 51.3393 12.9355 47.5846 9.57163L47.5845 9.57153C44.4394 6.75386 41.2802 3.92347 38.0972 0.866348C37.5132 0.332067 36.7992 0.000130948 36.0874 0.000130948C34.616 -0.0157838 33.3955 1.42109 33.4434 3.13988C33.4434 4.35395 33.9134 5.52027 34.7552 6.39558L40.1068 11.9586L33.4434 11.9541V31.9316H40.1093V11.9612C43.9135 15.7171 47.7171 19.1198 51.5424 22.542L51.5425 22.542C54.6256 25.3003 57.7229 28.0711 60.8461 31.0498C61.4164 31.6182 62.1122 31.9342 62.8239 31.9342C64.3273 31.966 65.5158 30.5292 65.4998 28.7944V0.000130948H58.8043ZM12.6337 31.9318C4.0675 31.9318 0 26.348 0 19.5638V0H6.69781V18.5225C6.69781 24.6929 10.6102 25.6546 14.9149 25.6546C19.2197 25.6546 23.1458 24.6906 23.1458 18.5225V0H29.8413V19.5638C29.8413 26.3457 25.7396 31.9318 17.2076 31.9318H12.6337ZM69.1019 15.967V19.5638C69.1019 26.348 73.1854 31.9318 81.7356 31.9318H99.7188L96.5365 25.6523H84.8381C80.7866 25.6523 75.7997 25.0043 75.7997 18.4907V13.4411C75.7997 6.92519 80.7547 6.29314 84.8381 6.29314H96.5365L99.7188 0H81.7356C73.1877 0 69.1019 5.58607 69.1019 12.3703V15.967ZM136.698 31.9477H155.996C164.575 31.9477 168.645 26.3616 168.645 19.5797V12.3862C168.645 5.58607 164.575 0 155.996 0H136.698V31.9477ZM143.362 6.2795H152.893C156.976 6.2795 161.931 6.9411 161.931 13.4571V18.4907C161.931 25.0066 156.976 25.6682 152.893 25.6682H143.362V6.2795ZM172.396 31.9477V0H201.683L198.534 6.2795H179.093V12.8409H198.137V19.1363H179.093V25.6682H200.702V31.9477H172.396ZM259.964 0.0683594H253.269V32.0002H259.964V0.0683594ZM298.002 19.5615C298.002 26.3753 293.917 31.9295 285.369 31.9295H277.421C268.839 31.9295 264.771 26.3457 264.771 19.5615V12.368C264.771 5.58607 268.841 0 277.421 0H285.369C293.919 0 298.002 5.56789 298.002 12.368V19.5615ZM291.304 13.4389C291.304 6.92291 286.318 6.29087 282.266 6.29087H280.525C276.426 6.29087 271.471 6.92291 271.471 13.4389V18.4884C271.471 25.0021 276.426 25.65 280.525 25.65H282.266C286.318 25.65 291.304 25.0043 291.304 18.4884V13.4389ZM120.314 31.9318C128.862 31.9318 132.948 26.3776 132.948 19.5638V12.3703C132.948 5.57016 128.864 0 120.314 0H112.366C103.789 0 99.7189 5.58607 99.7189 12.3703V19.5638C99.7189 26.348 103.786 31.9318 112.369 31.9318H120.314ZM117.212 6.29314C121.263 6.29314 126.25 6.92519 126.25 13.4411V18.4907C126.25 25.0066 121.263 25.6523 117.212 25.6523H115.471C111.372 25.6523 106.417 25.0043 106.417 18.4907V13.4411C106.417 6.92519 111.372 6.29314 115.471 6.29314H117.212ZM235.381 10.9328V10.9313C235.391 10.073 235.401 9.19742 235.356 8.37797C235.071 3.70813 232.078 0 226.094 0H207.885L204.691 6.24767H224.037C226.76 6.24767 228.69 7.20938 228.69 10.5697C228.69 13.9299 226.569 14.8621 224.037 14.8621H204.691V31.9477H211.387V21.0939H222.184L227.646 31.9477H235.37L229.655 20.5573C233.518 19.3114 235.37 15.9352 235.37 12.0065H235.372C235.372 11.6564 235.377 11.2977 235.381 10.9359V10.9344V10.9328ZM241.765 25.3271H248.46V32H241.765V25.3271Z" fill="url(#paint0_linear_6928_3735)"/>
    <defs>
        <linearGradient id="paint0_linear_6928_3735" x1="1.23116e-06" y1="16" x2="298" y2="16" gradientUnits="userSpaceOnUse">
            <stop stop-color="#0066FF"/>
            <stop offset="1" stop-color="#FFE601"/>
        </linearGradient>
    </defs>
</svg>
