<svg style="fill: currentColor;" width="1em" height="1em" viewBox="0 0 20 20" fill="none" xmlns="http://www.w3.org/2000/svg">
    <path fill-rule="evenodd" clip-rule="evenodd" d="M19.9999 6.55313V11.875C19.9989 12.7035 19.6693 13.4978 19.0835 14.0836C18.5272 14.6399 17.7829 14.9651 16.9999 14.9974V13.7458C17.4515 13.7157 17.8787 13.5229 18.2007 13.2008C18.5524 12.8492 18.7499 12.3723 18.7499 11.875V6.55313C18.7499 6.48584 18.7414 6.4204 18.7329 6.35492C18.7283 6.32006 18.7238 6.28519 18.7205 6.25001H16.7499L15.4838 4.98387C15.5297 4.99451 15.577 5.00001 15.6249 5.00001H18.3224C18.1892 4.76075 18.0251 4.5401 17.8343 4.34376L15.6568 2.16501C15.4601 1.97449 15.2392 1.81059 14.9999 1.67751V4.37501C14.9999 4.4229 15.0054 4.47022 15.016 4.51613L13.7499 3.24999V1.27939C13.7147 1.27613 13.6798 1.27159 13.6448 1.26705C13.5792 1.25853 13.5137 1.25001 13.4468 1.25001H10.6249C10.2937 1.25001 9.97162 1.33762 9.68951 1.5H7.95728C8.08553 1.28963 8.23921 1.09349 8.4163 0.916401C9.00213 0.330565 9.79641 0.00100682 10.6249 1.44054e-05H13.4468C14.0215 -0.00146492 14.5909 0.111007 15.1219 0.330926C15.6529 0.550846 16.1351 0.87385 16.5405 1.28126L18.718 3.46001C19.1257 3.86516 19.4489 4.34717 19.6689 4.87812C19.8889 5.40907 20.0014 5.9784 19.9999 6.55313ZM16.2499 14.375V9.05313C16.2514 8.4784 16.1389 7.90907 15.9189 7.37812C15.6989 6.84717 15.3757 6.36516 14.968 5.96001L12.7905 3.78126C12.3851 3.37385 11.9029 3.05085 11.3719 2.83093C10.8409 2.61101 10.2715 2.49854 9.69678 2.50001H6.87491C6.04641 2.50101 5.25213 2.83057 4.6663 3.4164C4.48921 3.59349 4.33553 3.78963 4.20728 4H5.93951C6.22162 3.83762 6.54374 3.75001 6.87491 3.75001H9.69678C9.76366 3.75001 9.8292 3.75853 9.89481 3.76705C9.92975 3.77159 9.96472 3.77613 9.9999 3.77939V5.4999L11.2499 6.7499V4.17751C11.4892 4.31059 11.7101 4.47449 11.9068 4.66501L14.0843 6.84376C14.2751 7.0401 14.4392 7.26075 14.5724 7.50001H12L13.25 8.75001H14.9705C14.9738 8.78518 14.9783 8.82005 14.9829 8.85491L14.9829 8.85492C14.9914 8.9204 14.9999 8.98584 14.9999 9.05313V14.375C14.9999 14.8723 14.8024 15.3492 14.4507 15.7008C14.1889 15.9627 13.8575 16.1391 13.5 16.2121V17.477C14.1902 17.3928 14.8368 17.0803 15.3335 16.5836C15.9193 15.9978 16.2489 15.2035 16.2499 14.375ZM12.5 11.5531V16.875C12.499 17.7035 12.1694 18.4978 11.5836 19.0836C10.9978 19.6695 10.2035 19.999 9.37499 20H3.125C2.2965 19.999 1.50222 19.6695 0.916386 19.0836C0.330551 18.4978 0.00099241 17.7035 0 16.875V8.12501C0.00099241 7.29652 0.330551 6.50224 0.916386 5.9164C1.50222 5.33057 2.2965 5.00101 3.125 5.00001H5.94687C6.52163 4.99854 7.09098 5.11101 7.62201 5.33093C8.15303 5.55085 8.63519 5.87385 9.04061 6.28126L11.2181 8.46001C11.6258 8.86516 11.949 9.34717 12.169 9.87812C12.389 10.4091 12.5015 10.9784 12.5 11.5531ZM8.15686 7.16501C7.96017 6.97449 7.73932 6.81059 7.49999 6.67751V9.37501C7.49999 9.54077 7.56584 9.69974 7.68305 9.81695C7.80026 9.93416 7.95923 10 8.12499 10H10.8225C10.6893 9.76075 10.5252 9.5401 10.3344 9.34376L8.15686 7.16501ZM11.25 11.5531C11.25 11.4858 11.2415 11.4204 11.2329 11.3549L11.2329 11.3549C11.2284 11.3201 11.2239 11.2852 11.2206 11.25H8.12499C7.62771 11.25 7.1508 11.0525 6.79917 10.7008C6.44754 10.3492 6.24999 9.87229 6.24999 9.37501V6.27939C6.21481 6.27613 6.17985 6.27159 6.1449 6.26705C6.0793 6.25853 6.01375 6.25001 5.94687 6.25001H3.125C2.62772 6.25001 2.1508 6.44756 1.79917 6.79919C1.44754 7.15082 1.25 7.62773 1.25 8.12501V16.875C1.25 17.3723 1.44754 17.8492 1.79917 18.2008C2.1508 18.5525 2.62772 18.75 3.125 18.75H9.37499C9.87227 18.75 10.3492 18.5525 10.7008 18.2008C11.0524 17.8492 11.25 17.3723 11.25 16.875V11.5531ZM2.25 13.5C2.25 13.0858 2.58579 12.75 3 12.75H9C9.41421 12.75 9.75 13.0858 9.75 13.5C9.75 13.9142 9.41421 14.25 9 14.25H3C2.58579 14.25 2.25 13.9142 2.25 13.5ZM3 15.25C2.58579 15.25 2.25 15.5858 2.25 16C2.25 16.4142 2.58579 16.75 3 16.75H9C9.41421 16.75 9.75 16.4142 9.75 16C9.75 15.5858 9.41421 15.25 9 15.25H3Z"/>
</svg>
