<svg style="fill: currentColor;" width="1em" height="1em" viewBox="0 0 16 16" fill="none" xmlns="http://www.w3.org/2000/svg">
    <path d="M7.33755 2.71891L7.33288 11.0109C7.33288 11.1877 7.40312 11.3573 7.52814 11.4823C7.65317 11.6073 7.82274 11.6776 7.99955 11.6776C8.17636 11.6776 8.34593 11.6073 8.47095 11.4823C8.59598 11.3573 8.66621 11.1877 8.66621 11.0109L8.67088 2.73024L10.6122 4.67224C10.7372 4.79722 10.9068 4.86743 11.0835 4.86743C11.2603 4.86743 11.4299 4.79722 11.5549 4.67224C11.6799 4.54722 11.7501 4.37768 11.7501 4.20091C11.7501 4.02413 11.6799 3.85459 11.5549 3.72957L9.41421 1.58624C9.22848 1.40039 9.00795 1.25295 8.76521 1.15236C8.52248 1.05177 8.2623 1 7.99955 1C7.7368 1 7.47662 1.05177 7.23388 1.15236C6.99115 1.25295 6.77062 1.40039 6.58488 1.58624L4.44421 3.72757C4.31923 3.85259 4.24902 4.02213 4.24902 4.19891C4.24902 4.37568 4.31923 4.54522 4.44421 4.67024C4.56923 4.79522 4.73877 4.86543 4.91555 4.86543C5.09232 4.86543 5.26186 4.79522 5.38688 4.67024L7.33755 2.71891Z"/>
    <path d="M13.6667 10.3346V13.0013C13.6667 13.1781 13.5964 13.3477 13.4714 13.4727C13.3464 13.5977 13.1768 13.668 13 13.668H3C2.82319 13.668 2.65362 13.5977 2.5286 13.4727C2.40357 13.3477 2.33333 13.1781 2.33333 13.0013V10.3346C2.33333 10.1578 2.2631 9.98825 2.13807 9.86323C2.01305 9.73821 1.84348 9.66797 1.66667 9.66797C1.48986 9.66797 1.32029 9.73821 1.19526 9.86323C1.07024 9.98825 1 10.1578 1 10.3346V13.0013C1 13.5317 1.21071 14.0404 1.58579 14.4155C1.96086 14.7906 2.46957 15.0013 3 15.0013H13C13.5304 15.0013 14.0391 14.7906 14.4142 14.4155C14.7893 14.0404 15 13.5317 15 13.0013V10.3346C15 10.1578 14.9298 9.98825 14.8047 9.86323C14.6797 9.73821 14.5101 9.66797 14.3333 9.66797C14.1565 9.66797 13.987 9.73821 13.8619 9.86323C13.7369 9.98825 13.6667 10.1578 13.6667 10.3346Z"/>
</svg>
