<svg style="fill: currentColor;" width="16" height="16" viewBox="0 0 16 16" fill="none" xmlns="http://www.w3.org/2000/svg">
    <path d="M6.11768 5.96875H9.88238V9.75H6.11768V5.96875Z"/>
    <path d="M15.3098 7.25C14.7765 7.25 14.2431 7.25 13.7098 7.25V5.96875H14.4627H14.651C14.9647 5.96875 15.2784 5.6875 15.2784 5.34375C15.2784 5 14.9961 4.71875 14.651 4.71875C14.3373 4.71875 14.0235 4.71875 13.7098 4.71875V3.28125C13.7098 2.6875 13.2392 2.21875 12.6431 2.21875H11.1373C11.1373 1.96875 11.1373 1.71875 11.1373 1.5C11.1373 1.4375 11.1373 1.375 11.1373 1.3125C11.1373 1 10.8549 0.6875 10.5098 0.6875C10.1647 0.6875 9.88235 0.96875 9.88235 1.3125V2.25H8.62745C8.62745 1.8125 8.62745 1.375 8.62745 0.90625C8.62745 0.8125 8.62745 0.71875 8.62745 0.625C8.62745 0.3125 8.3451 0 8 0C7.6549 0 7.37255 0.28125 7.37255 0.625V2.21875H6.11765C6.11765 1.96875 6.11765 1.71875 6.11765 1.5C6.11765 1.4375 6.11765 1.375 6.11765 1.3125C6.11765 1 5.83529 0.6875 5.4902 0.6875C5.1451 0.6875 4.86275 0.96875 4.86275 1.3125V2.25H3.35686C2.76078 2.25 2.2902 2.71875 2.2902 3.3125V4.75C2.03922 4.75 1.78824 4.75 1.53725 4.75C1.47451 4.75 1.41176 4.75 1.34902 4.75C1.03529 4.75 0.721569 5.03125 0.721569 5.375C0.721569 5.71875 1.00392 6 1.34902 6H2.2902V7.28125C1.81961 7.28125 1.34902 7.28125 0.909804 7.28125C0.815686 7.28125 0.721569 7.28125 0.627451 7.28125C0.313726 7.28125 0 7.5625 0 7.90625C0 8.25 0.282353 8.53125 0.627451 8.53125H2.32157V9.8125C2.07059 9.8125 1.81961 9.8125 1.56863 9.8125C1.50588 9.8125 1.44314 9.8125 1.38039 9.8125C1.06667 9.8125 0.752941 10.0938 0.752941 10.4375C0.752941 10.7813 1.03529 11.0625 1.38039 11.0625H2.32157V12.5625C2.32157 13.1562 2.79216 13.625 3.38824 13.625H4.89412V14.4688V14.6875C4.89412 15 5.17647 15.3125 5.52157 15.3125C5.86667 15.3125 6.14902 15.0312 6.14902 14.6875C6.14902 14.3438 6.14902 13.9688 6.14902 13.625H7.40392V15.0938V15.375C7.40392 15.6875 7.68628 16 8.03137 16C8.37647 16 8.65882 15.7188 8.65882 15.375C8.65882 14.7812 8.65882 14.1875 8.65882 13.625H9.91373V14.4688V14.6875C9.91373 15 10.1961 15.3125 10.5412 15.3125C10.8863 15.3125 11.1686 15.0312 11.1686 14.6875C11.1686 14.3438 11.1686 13.9688 11.1686 13.625H12.6745C13.2706 13.625 13.7412 13.1562 13.7412 12.5625V11.0625H14.4941H14.6824C14.9961 11.0625 15.3098 10.7813 15.3098 10.4375C15.3098 10.0938 15.0275 9.8125 14.6824 9.8125C14.3686 9.8125 14.0549 9.8125 13.7412 9.8125V8.53125H15.0902H15.3726C15.6863 8.53125 16 8.25 16 7.90625C15.9059 7.53125 15.6549 7.25 15.3098 7.25ZM4.86275 5.78125C4.86275 5.1875 5.33333 4.71875 5.92941 4.71875H10.102C10.698 4.71875 11.1686 5.1875 11.1686 5.78125V9.96875C11.1686 10.5625 10.698 11.0312 10.102 11.0312H5.92941C5.33333 11.0312 4.86275 10.5625 4.86275 9.96875V5.78125Z"/>
</svg>
