<svg style="fill: currentColor" width="16" height="16" viewBox="0 0 16 16" xmlns="http://www.w3.org/2000/svg">
    <path d="M13.791 12.8094C14.4669 13.469 15.1469 14.1325 15.8217 14.7909C16.0577 15.021 16.0598 15.3997 15.8269 15.6326C15.8239 15.6356 15.8214 15.6381 15.8185 15.641C15.5873 15.8722 15.2126 15.8718 14.9818 15.6407C14.3274 14.9852 13.6665 14.3231 13.0022 13.6577C12.1747 14.2844 11.2632 14.5838 10.2323 14.4137C9.29671 14.2592 8.52253 13.8086 7.92144 13.0746C6.74227 11.6343 6.79742 9.52209 8.04341 8.16179C9.30693 6.7825 11.2559 6.53674 12.7688 7.54865C14.3304 8.59307 14.9953 10.8451 13.791 12.8098V12.8094ZM13.2553 10.683C13.252 9.27741 12.0936 8.08218 10.7362 8.08437C9.3807 8.08656 8.2176 9.28874 8.2176 10.6874C8.2176 12.0882 9.37668 13.2911 10.7319 13.2959C12.0951 13.3006 13.2585 12.0959 13.2553 10.6826V10.683Z" />
    <path d="M5.27539 6.09954V3.26209C5.27539 2.97725 5.47259 2.74609 5.7158 2.74609H5.9842C6.22741 2.74609 6.42461 2.97725 6.42461 3.26209V6.09954C6.42461 6.38438 6.22741 6.61554 5.9842 6.61554H5.7158C5.47259 6.61554 5.27539 6.38438 5.27539 6.09954Z" />
    <path d="M6.05603 7.44531H5.64118C5.44011 7.44531 5.2771 7.60832 5.2771 7.8094V8.30056C5.2771 8.50164 5.44011 8.66465 5.64118 8.66465H6.05603C6.25711 8.66465 6.42011 8.50164 6.42011 8.30056V7.8094C6.42011 7.60832 6.25711 7.44531 6.05603 7.44531Z" />
    <path d="M5.84972 10.7199H1.87437C1.2039 10.7199 0.600987 10.3675 0.261735 9.77697C-0.0895685 9.16602 -0.0873774 8.43785 0.267212 7.82946L4.31779 0.879354C4.63915 0.327932 5.20408 0 5.8311 0C5.83548 0 5.83986 0 5.84424 0C6.4771 0.00438216 7.04313 0.341809 7.35901 0.90163L10.0088 5.60259C10.1672 5.88378 10.0679 6.2402 9.78673 6.39832C9.50554 6.55681 9.14912 6.45748 8.991 6.17629L6.34089 1.47569C6.18605 1.20071 5.93627 1.16931 5.83584 1.16858C5.73615 1.16931 5.486 1.1956 5.32751 1.46766L1.27694 8.41776C1.13561 8.66024 1.13488 8.95093 1.27474 9.19487C1.33646 9.30223 1.51832 9.55165 1.874 9.55165H5.84972C6.17254 9.55165 6.43401 9.81312 6.43401 10.1359C6.43401 10.4588 6.17254 10.7202 5.84972 10.7202V10.7199Z" />
</svg>

