<svg width="160" height="160" viewBox="0 0 160 160" fill="none" xmlns="http://www.w3.org/2000/svg">
    <path fill-rule="evenodd" clip-rule="evenodd" d="M94.6716 44.7555V77.5065C94.6716 86.987 86.9207 94.7438 77.4474 94.7438H17.2242C7.75089 94.7438 0 86.987 0 77.5065V17.2373C0 7.7568 7.75089 0 17.2242 0H77.4474C86.0595 0 93.2568 6.40244 94.4871 14.7133L110.296 25.9791C111.527 26.841 112.265 28.2569 112.265 29.796C112.265 31.335 111.527 32.7509 110.296 33.6128L94.6716 44.7555ZM104.083 65.3177H142.776C152.249 65.3177 160 73.0745 160 82.5551V142.763C160 152.243 152.249 160 142.776 160H82.5526C73.9405 160 66.7432 153.598 65.5129 145.287L49.7035 134.021C48.4732 133.159 47.7351 131.743 47.7351 130.204C47.7351 128.665 48.4732 127.249 49.7035 126.387L65.3284 115.244V104.102H77.5699C78.9847 104.102 80.338 103.979 81.6914 103.732V106.81C81.6914 108.596 81.1377 109.889 80.092 110.689C79.0462 111.489 77.5083 111.92 75.4168 111.92V118.261C77.5083 118.261 79.0462 118.692 80.092 119.492C81.1377 120.293 81.6299 121.585 81.6299 123.309V131.805C81.6299 133.898 81.9989 135.56 82.7371 136.853C83.4138 138.084 84.6441 139.007 86.3665 139.561C88.0889 140.116 90.4265 140.423 93.4407 140.423V134.267C91.8413 134.206 90.6111 133.898 89.8114 133.344C89.0117 132.851 88.6426 131.805 88.6426 130.266V121.832C88.6426 119.923 88.212 118.446 87.2892 117.338C86.3665 116.229 84.9517 115.552 82.9832 115.244V114.875C84.8901 114.567 86.305 113.89 87.2277 112.782C88.0889 111.735 88.5811 110.196 88.5811 108.226V101.393C94.9786 98.3765 99.7768 93.2053 102.791 85.4485C103.591 82.986 104.083 80.3389 104.083 77.5686V65.3177ZM98.485 131.62C100.023 131.62 101.253 131.189 102.114 130.266V130.204C103.037 129.281 103.468 128.111 103.468 126.51C103.468 124.91 103.037 123.617 102.176 122.755C101.315 121.832 100.146 121.401 98.485 121.401C96.8241 121.401 95.5938 121.832 94.7325 122.693C93.8713 123.555 93.4407 124.91 93.4407 126.51C93.4407 128.111 93.9329 129.404 94.7941 130.266C95.6553 131.189 96.9471 131.62 98.485 131.62ZM112.449 131.62C113.987 131.62 115.217 131.189 116.078 130.266V130.204C117.001 129.281 117.432 128.111 117.432 126.51C117.432 124.91 117.001 123.617 116.14 122.755C115.279 121.832 114.11 121.401 112.449 121.401C110.788 121.401 109.558 121.832 108.696 122.693C107.835 123.555 107.405 124.91 107.405 126.51C107.405 128.111 107.897 129.404 108.758 130.266C109.619 131.189 110.911 131.62 112.449 131.62ZM122.722 130.266C123.583 131.189 124.813 131.62 126.413 131.62V131.558C127.951 131.558 129.181 131.127 130.042 130.204C130.965 129.281 131.396 128.111 131.396 126.51C131.396 124.91 130.965 123.617 130.104 122.755C129.242 121.832 128.074 121.401 126.413 121.401C124.752 121.401 123.522 121.832 122.66 122.693C121.799 123.555 121.369 124.91 121.369 126.51C121.369 128.111 121.861 129.404 122.722 130.266ZM144.744 119.431C145.79 118.63 147.328 118.199 149.419 118.199L149.358 118.138V111.797C147.266 111.797 145.729 111.366 144.683 110.566C143.637 109.765 143.145 108.473 143.145 106.749V98.2534C143.145 96.1603 142.776 94.4981 142.038 93.2053C141.361 91.9741 140.131 91.0506 138.408 90.4966C136.686 89.9425 134.348 89.6347 131.334 89.6347V95.7909C132.933 95.8525 134.164 96.1603 134.963 96.7143C135.763 97.2684 136.132 98.3149 136.132 99.854V108.288C136.132 110.196 136.563 111.674 137.486 112.782C138.408 113.89 139.823 114.567 141.792 114.875V115.244C139.885 115.552 138.47 116.229 137.547 117.338C136.624 118.384 136.132 119.923 136.132 121.893V130.266C136.132 131.374 135.948 132.174 135.579 132.728C135.209 133.282 134.656 133.713 133.918 133.898C133.179 134.082 132.318 134.267 131.334 134.267V140.423C134.41 140.423 136.809 140.116 138.531 139.5C140.254 138.946 141.422 137.961 142.099 136.73C142.776 135.498 143.145 133.836 143.145 131.805V123.309C143.145 121.524 143.699 120.231 144.744 119.431ZM58.2351 38.6102C59.2499 30.6628 63.6526 25.0967 70.7408 21.3371V21.3334C65.2384 22.9108 61.0055 24.9127 57.2318 30.1408C55.6074 32.3943 55.3797 34.7417 55.5996 35.0421C56.1244 35.7633 58.0306 38.351 58.2351 38.6102ZM56.873 53.9941C58.4434 57.6673 59.4428 61.9414 59.4004 62.2907C54.8125 54.6964 49.8542 48.2063 41.5234 43.0909C24.9506 32.9187 11.6149 35.7188 11.5815 35.5684C11.5735 35.5321 12.3378 35.3246 14.0154 34.7229C32.8377 27.9737 49.8503 37.5661 56.873 53.9941ZM78.0238 29.3368C77.1025 38.6692 76.2145 47.6635 66.4192 58.7489H66.4153C71.3436 46.3772 72.6283 40.1061 73.5348 35.6816C74.4594 31.1685 74.9904 28.5767 78.5931 23.3916C78.6664 23.5343 78.6587 23.6244 78.6471 23.7146C78.3913 25.6147 78.2069 27.4824 78.0238 29.3368ZM80.3496 29.548C80.4657 27.9196 80.5834 26.267 80.7539 24.5671V24.5634C81.1128 24.5934 83.4048 31.3201 82.4247 38.8731C80.5378 53.4081 68.5182 61.701 66.5272 62.2193C78.9872 48.6698 79.6358 39.5666 80.3496 29.548ZM71.1565 24.2705C69.7386 25.6821 66.2145 29.1905 64.351 38.0543C62.7599 45.6121 63.0504 48.9664 62.9365 48.9802C62.8455 48.9912 62.496 46.8673 60.72 43.0496C60.5387 42.6627 59.3232 32.03 69.1163 25.1343C69.6985 24.7222 70.3079 24.3489 70.9171 23.9758C71.1962 23.8048 71.4753 23.6338 71.7518 23.4592C71.8405 23.5896 71.6029 23.8261 71.1565 24.2705ZM34.1696 56.5973C40.9728 62.3643 47.448 67.8534 57.8376 70.5047L57.8415 70.5084C58.6981 70.73 43.4334 74.6849 28.9637 59.0006C27.0745 56.9524 25.4524 55.081 23.9632 53.3631C20.2694 49.1017 17.3941 45.7847 13.2939 43.0571C12.5336 42.5512 12.3996 42.5059 12.4011 42.4656C12.4015 42.4535 12.4141 42.4419 12.4257 42.4186C21.8842 46.183 28.155 51.4988 34.1696 56.5973ZM70.9021 35.9518C70.1065 40.0076 69.0399 45.4454 64.6172 56.5856V56.5893C64.6128 56.5792 64.6082 56.5728 64.6039 56.5668C64.5451 56.4841 64.5376 56.4737 65.5664 47.6467C65.6193 47.1946 65.6717 46.7265 65.7256 46.245C66.5257 39.0984 67.6592 28.9731 75.5834 23.5718C72.2245 29.2101 71.6994 31.8868 70.9021 35.9518ZM33.5959 52.9632C40.2267 58.6805 47.2539 64.7397 59.4119 68.4502C52.7636 49.6523 29.4035 33.5398 7.99985 38.9219C8.02015 39.0138 8.27621 39.0542 8.78573 39.1347C10.2132 39.36 13.6299 39.8994 19.4252 42.7641C24.913 45.4763 29.166 49.1434 33.5959 52.9632ZM40.9292 33.5098C30.8274 28.3755 19.2091 29.3521 8.81015 34.306C31.5142 14.6517 67.3491 34.5576 62.167 62.8916C58.7367 49.7049 54.3109 40.3078 40.9292 33.5098Z" fill="#4AC18E"/>
</svg>
