<svg style="fill: currentColor;" width="1em" height="1em" viewBox="0 0 24 20" fill="none" xmlns="http://www.w3.org/2000/svg">
    <path d="M20.3303 1.79117C18.7535 1.0371 17.0888 0.502141 15.3789 0.199951C15.1449 0.636873 14.9332 1.08641 14.7446 1.54667C12.9232 1.25998 11.071 1.25998 9.24961 1.54667C9.06095 1.08645 8.84924 0.636925 8.61535 0.199951C6.90433 0.504693 5.2386 1.04092 3.66019 1.79512C0.526644 6.63779 -0.322811 11.3602 0.101917 16.0155C1.937 17.4318 3.99098 18.5089 6.17458 19.2C6.66626 18.5092 7.10134 17.7764 7.47519 17.0093C6.76511 16.7323 6.07975 16.3905 5.42706 15.9879C5.59884 15.8578 5.76684 15.7237 5.92918 15.5936C7.82837 16.5265 9.90124 17.0102 12 17.0102C14.0987 17.0102 16.1715 16.5265 18.0707 15.5936C18.235 15.7336 18.403 15.8677 18.5729 15.9879C17.9189 16.3912 17.2323 16.7336 16.5209 17.0113C16.8943 17.778 17.3294 18.5102 17.8216 19.2C20.007 18.5116 22.0626 17.4351 23.898 16.0175C24.3963 10.6188 23.0467 5.93978 20.3303 1.79117ZM8.01318 13.1525C6.82961 13.1525 5.85179 12.0306 5.85179 10.6503C5.85179 9.2701 6.79563 8.13831 8.0094 8.13831C9.22318 8.13831 10.1934 9.2701 10.1727 10.6503C10.1519 12.0306 9.21941 13.1525 8.01318 13.1525ZM15.9867 13.1525C14.8013 13.1525 13.8272 12.0306 13.8272 10.6503C13.8272 9.2701 14.7711 8.13831 15.9867 8.13831C17.2024 8.13831 18.1651 9.2701 18.1444 10.6503C18.1236 12.0306 17.193 13.1525 15.9867 13.1525Z"/>
</svg>
