<svg style="fill: currentColor;" width="1em" height="1em" viewBox="0 0 32 23" fill="none" xmlns="http://www.w3.org/2000/svg">
    <path d="M31.696 8.46639C31.6 8.4039 30.8 7.7947 29.072 7.7947C28.624 7.7947 28.176 7.84156 27.728 7.91966C27.392 5.73278 25.52 4.62371 25.44 4.57685L24.976 4.3113L24.688 4.73305C24.304 5.2954 24 5.93584 23.872 6.59191C23.552 7.84156 23.744 9.02873 24.4 10.0441C23.616 10.4815 22.336 10.5908 22.064 10.5908H0.992C0.448 10.5908 0 11.0282 0 11.5749C0 13.3713 0.288 15.1676 0.928 16.8547C1.648 18.7135 2.736 20.0881 4.128 20.9317C5.696 21.8689 8.272 22.4 11.2 22.4C12.464 22.4 13.776 22.2907 15.072 22.0563C16.864 21.7439 18.592 21.1347 20.176 20.2444C21.4879 19.512 22.6621 18.5664 23.648 17.4483C25.328 15.6206 26.32 13.5431 27.04 11.7467H27.344C29.168 11.7467 30.304 11.0282 30.928 10.419C31.344 10.0441 31.648 9.59107 31.872 9.05997L32 8.68508L31.696 8.46639ZM2.96 10.0128H5.776C5.904 10.0128 6.032 9.90349 6.032 9.7629V7.29484C6.032 7.16987 5.92 7.04491 5.776 7.04491H2.96C2.816 7.04491 2.704 7.15425 2.704 7.29484V9.7629C2.72 9.90349 2.816 10.0128 2.96 10.0128ZM6.848 10.0128H9.664C9.792 10.0128 9.92 9.90349 9.92 9.7629V7.29484C9.92 7.16987 9.808 7.04491 9.664 7.04491H6.848C6.704 7.04491 6.592 7.15425 6.592 7.29484V9.7629C6.608 9.90349 6.704 10.0128 6.848 10.0128ZM10.8 10.0128H13.6C13.76 10.0128 13.872 9.90349 13.872 9.7629V7.29484C13.872 7.16987 13.776 7.04491 13.6 7.04491H10.8C10.672 7.04491 10.56 7.15425 10.56 7.29484V9.7629C10.56 9.90349 10.656 10.0128 10.8 10.0128ZM14.704 10.0128H17.536C17.664 10.0128 17.776 9.90349 17.776 9.7629V7.29484C17.776 7.16987 17.68 7.04491 17.536 7.04491H14.704C14.576 7.04491 14.464 7.15425 14.464 7.29484V9.7629C14.464 9.90349 14.576 10.0128 14.704 10.0128ZM6.848 6.51381H9.664C9.792 6.51381 9.92 6.37322 9.92 6.23264V3.7802C9.92 3.63961 9.808 3.53027 9.664 3.53027H6.848C6.704 3.53027 6.592 3.62399 6.592 3.7802V6.23264C6.608 6.37322 6.704 6.51381 6.848 6.51381ZM10.8 6.51381H13.6C13.76 6.51381 13.872 6.37322 13.872 6.23264V3.7802C13.872 3.63961 13.776 3.53027 13.6 3.53027H10.8C10.672 3.53027 10.56 3.62399 10.56 3.7802V6.23264C10.56 6.37322 10.656 6.51381 10.8 6.51381ZM14.704 6.51381H17.536C17.664 6.51381 17.776 6.37322 17.776 6.23264V3.7802C17.776 3.63961 17.664 3.53027 17.536 3.53027H14.704C14.576 3.53027 14.464 3.62399 14.464 3.7802V6.23264C14.464 6.37322 14.576 6.51381 14.704 6.51381ZM14.704 2.9523H17.536C17.664 2.9523 17.776 2.84296 17.776 2.70237V0.265551C17.776 0.109345 17.664 0 17.536 0H14.704C14.576 0 14.464 0.093724 14.464 0.265551V2.70237C14.464 2.82734 14.576 2.9523 14.704 2.9523ZM18.64 10.0128H21.456C21.6 10.0128 21.712 9.90349 21.712 9.7629V7.29484C21.712 7.16987 21.6 7.04491 21.456 7.04491H18.64C18.512 7.04491 18.4 7.15425 18.4 7.29484V9.7629C18.4 9.90349 18.512 10.0128 18.64 10.0128Z"/>
</svg>
