<svg style="fill: currentColor;" width="1em" height="1em" viewBox="0 0 24 24" fill="none" xmlns="http://www.w3.org/2000/svg">
    <path fill-rule="evenodd" clip-rule="evenodd" d="M12 0.100098C5.37 0.100098 1.75145e-06 5.42253 1.75145e-06 11.9938C-0.00135931 14.4906 0.790578 16.9245 2.26346 18.95C3.73634 20.9756 5.81538 22.4901 8.2056 23.2785C8.8056 23.382 9.03 23.0252 9.03 22.7124C9.03 22.4305 9.0144 21.4945 9.0144 20.4978C6 21.0485 5.22 19.7699 4.98 19.1003C4.8444 18.7577 4.26 17.7028 3.75 17.4197C3.33 17.1973 2.73 16.6466 3.7344 16.6323C4.68 16.6169 5.3544 17.4946 5.58 17.8514C6.66 19.6498 8.3856 19.1443 9.0744 18.8327C9.18 18.0596 9.4944 17.5398 9.84 17.2425C7.17 16.9451 4.38 15.9187 4.38 11.3694C4.38 10.0753 4.8444 9.0061 5.61 8.17235C5.49 7.87501 5.07 6.6559 5.73 5.02052C5.73 5.02052 6.7344 4.70891 9.03 6.24081C10.0069 5.97209 11.0162 5.83684 12.03 5.83881C13.05 5.83881 14.07 5.97202 15.03 6.23963C17.3244 4.69344 18.33 5.02171 18.33 5.02171C18.99 6.65709 18.57 7.8762 18.45 8.17354C19.2144 9.0061 19.68 10.0611 19.68 11.3694C19.68 15.9342 16.8756 16.9451 14.2056 17.2425C14.64 17.6136 15.0156 18.3272 15.0156 19.4428C15.0156 21.033 15 22.3116 15 22.7136C15 23.0252 15.2256 23.3963 15.8256 23.2773C18.2076 22.4802 20.2775 20.9628 21.7439 18.9387C23.2103 16.9146 23.9993 14.4857 24 11.9938C24 5.42253 18.63 0.100098 12 0.100098Z"/>
</svg>
