<svg style="fill: currentColor;" width="1em" height="1em" viewBox="0 0 18 24" fill="none" xmlns="http://www.w3.org/2000/svg">
    <path d="M8.99983 8.44019C8.217 8.44019 7.58008 9.07708 7.58008 9.85994C7.58008 10.6428 8.21697 11.2797 8.99983 11.2797C9.78269 11.2797 10.4196 10.6428 10.4196 9.85994C10.4196 9.07708 9.78267 8.44019 8.99983 8.44019Z"/>
    <path d="M2.13843 0.852661C1.22481 0.852661 0.481445 1.59602 0.481445 2.50965V18.1668C0.960114 17.8595 1.52858 17.6804 2.13843 17.6804H17.5186V0.852661H2.13843ZM13.7323 10.1667H12.6587C12.5617 10.6678 12.3647 11.1336 12.0883 11.5418L12.8481 12.3016L11.8445 13.3052L11.0847 12.5454C10.6766 12.8218 10.2107 13.0188 9.70966 13.1158V14.1895H8.2904V13.1158C7.78931 13.0188 7.32346 12.8218 6.91533 12.5454L6.15555 13.3052L5.15204 12.3016L5.91182 11.5418C5.63539 11.1336 5.4384 10.6678 5.34142 10.1667H4.26775V8.74753H5.34137C5.4384 8.24644 5.63535 7.78064 5.91177 7.37246L5.15199 6.61268L6.15551 5.60912L6.91528 6.3689C7.32346 6.09248 7.78931 5.89548 8.29036 5.7985V4.72488H9.70966V5.7985C10.2108 5.89553 10.6766 6.09248 11.0847 6.3689L11.8445 5.60912L12.8481 6.61268L12.0883 7.37246C12.3647 7.78064 12.5617 8.24649 12.6587 8.74753H13.7323V10.1667Z"/>
    <path d="M2.13843 19.0996C1.22476 19.0996 0.481445 19.8429 0.481445 20.7566C0.481445 21.6703 1.22481 22.4136 2.13843 22.4136H3.55717H9.18369H17.5186V19.0996H2.13843Z"/>
</svg>
