<svg style="fill: currentColor;" width="1em" height="1em" viewBox="0 0 37 24" fill="none" xmlns="http://www.w3.org/2000/svg">
    <path d="M31.0904 0.00181085C27.5779 1.81447 25.3962 4.49814 24.8933 8.32989C24.792 8.20495 23.8474 6.95727 23.5874 6.60959C23.4784 6.46472 23.5912 5.33294 24.3962 4.24644C26.2662 1.72574 28.3638 0.760556 31.0904 0V0.00181085ZM25.4708 19.7473C25.4918 19.5789 24.9966 17.5181 24.2184 15.7471C20.7384 7.82648 12.308 3.20158 2.98093 6.45567C-1.30021 7.94962 6.42076 4.40398 16.6121 10.4902C20.7403 12.9566 23.1973 16.0858 25.4708 19.7473ZM28.9489 18.0397C34.7673 11.6329 34.2434 6.67478 35.0082 1.14808C35.014 1.10462 35.0178 1.06116 34.9815 0.992344C31.446 5.9432 33.8801 5.99028 28.947 18.0397H28.9489ZM36.0522 1.55914C35.448 7.42085 36.1803 12.1182 29.0024 19.7129C29.989 19.463 35.9452 15.4646 36.8802 8.45665C37.3658 4.81504 36.2301 1.57181 36.0522 1.55733V1.55914ZM27.924 8.06189C29.1382 2.44283 31.7749 1.28751 31.5914 1.02494C31.1554 1.29294 30.7061 1.54284 30.2854 1.83258C25.4326 5.15729 26.0349 10.2838 26.1247 10.4703C28.1056 14.6135 26.5052 14.619 27.924 8.06189ZM24.6964 23.7076C14.9964 21.2992 12.1819 14.0341 2.19315 10.1661C2.1683 10.215 2.13388 10.157 2.62337 10.4739C5.47428 12.3192 7.13014 14.724 10.3883 18.161C17.5586 25.7231 25.1228 23.8163 24.6983 23.7094L24.6964 23.7076ZM28.0559 16.9966C32.4441 6.24199 30.1649 6.50999 33.4901 1.07926C29.2988 3.85891 28.9412 9.23351 28.5263 12.6868C27.9794 17.2519 28.0234 16.926 28.0559 16.9984V16.9966ZM25.4765 22.7171C15.4266 19.7328 12.4515 13.5976 5.66166 10.3327C1.76485 8.45846 0.0382416 8.6486 0 8.48019C10.6063 5.88525 22.182 13.6538 25.4765 22.7171ZM0.401536 6.25466C5.55459 3.86616 11.3119 3.39534 16.3177 5.87076C22.9488 9.1484 25.1419 13.6791 26.8418 20.037C29.4097 6.37599 11.6522 -3.2215 0.401536 6.25466Z"/>
</svg>
